<?xml version="1.0" standalone="no"?>
<svg xmlns="http://www.w3.org/2000/svg" width="500" height="500"><defs><clipPath id="clip-path-dot-color"><circle cx="26" cy="154" r="8" transform="rotate(0,26,154)"/><circle cx="26" cy="186" r="8" transform="rotate(0,26,186)"/><circle cx="26" cy="202" r="8" transform="rotate(0,26,202)"/><circle cx="26" cy="250" r="8" transform="rotate(0,26,250)"/><circle cx="26" cy="266" r="8" transform="rotate(0,26,266)"/><circle cx="26" cy="314" r="8" transform="rotate(0,26,314)"/><circle cx="26" cy="346" r="8" transform="rotate(0,26,346)"/><circle cx="42" cy="170" r="8" transform="rotate(0,42,170)"/><circle cx="42" cy="202" r="8" transform="rotate(0,42,202)"/><circle cx="42" cy="218" r="8" transform="rotate(0,42,218)"/><circle cx="42" cy="234" r="8" transform="rotate(0,42,234)"/><circle cx="42" cy="250" r="8" transform="rotate(0,42,250)"/><circle cx="42" cy="282" r="8" transform="rotate(0,42,282)"/><circle cx="42" cy="330" r="8" transform="rotate(0,42,330)"/><circle cx="58" cy="170" r="8" transform="rotate(0,58,170)"/><circle cx="58" cy="186" r="8" transform="rotate(0,58,186)"/><circle cx="58" cy="266" r="8" transform="rotate(0,58,266)"/><circle cx="58" cy="282" r="8" transform="rotate(0,58,282)"/><circle cx="58" cy="330" r="8" transform="rotate(0,58,330)"/><circle cx="58" cy="346" r="8" transform="rotate(0,58,346)"/><circle cx="74" cy="186" r="8" transform="rotate(0,74,186)"/><circle cx="74" cy="234" r="8" transform="rotate(0,74,234)"/><circle cx="74" cy="266" r="8" transform="rotate(0,74,266)"/><circle cx="74" cy="282" r="8" transform="rotate(0,74,282)"/><circle cx="74" cy="298" r="8" transform="rotate(0,74,298)"/><circle cx="74" cy="314" r="8" transform="rotate(0,74,314)"/><circle cx="74" cy="330" r="8" transform="rotate(0,74,330)"/><circle cx="74" cy="346" r="8" transform="rotate(0,74,346)"/><circle cx="90" cy="154" r="8" transform="rotate(0,90,154)"/><circle cx="90" cy="170" r="8" transform="rotate(0,90,170)"/><circle cx="90" cy="234" r="8" transform="rotate(0,90,234)"/><circle cx="90" cy="250" r="8" transform="rotate(0,90,250)"/><circle cx="90" cy="266" r="8" transform="rotate(0,90,266)"/><circle cx="90" cy="330" r="8" transform="rotate(0,90,330)"/><circle cx="106" cy="154" r="8" transform="rotate(0,106,154)"/><circle cx="106" cy="170" r="8" transform="rotate(0,106,170)"/><circle cx="106" cy="218" r="8" transform="rotate(0,106,218)"/><circle cx="106" cy="250" r="8" transform="rotate(0,106,250)"/><circle cx="106" cy="282" r="8" transform="rotate(0,106,282)"/><circle cx="106" cy="314" r="8" transform="rotate(0,106,314)"/><circle cx="122" cy="154" r="8" transform="rotate(0,122,154)"/><circle cx="122" cy="186" r="8" transform="rotate(0,122,186)"/><circle cx="122" cy="218" r="8" transform="rotate(0,122,218)"/><circle cx="122" cy="250" r="8" transform="rotate(0,122,250)"/><circle cx="122" cy="282" r="8" transform="rotate(0,122,282)"/><circle cx="122" cy="314" r="8" transform="rotate(0,122,314)"/><circle cx="122" cy="346" r="8" transform="rotate(0,122,346)"/><circle cx="138" cy="170" r="8" transform="rotate(0,138,170)"/><circle cx="138" cy="218" r="8" transform="rotate(0,138,218)"/><circle cx="138" cy="330" r="8" transform="rotate(0,138,330)"/><circle cx="154" cy="42" r="8" transform="rotate(0,154,42)"/><circle cx="154" cy="58" r="8" transform="rotate(0,154,58)"/><circle cx="154" cy="74" r="8" transform="rotate(0,154,74)"/><circle cx="154" cy="90" r="8" transform="rotate(0,154,90)"/><circle cx="154" cy="106" r="8" transform="rotate(0,154,106)"/><circle cx="154" cy="122" r="8" transform="rotate(0,154,122)"/><circle cx="154" cy="138" r="8" transform="rotate(0,154,138)"/><circle cx="154" cy="170" r="8" transform="rotate(0,154,170)"/><circle cx="154" cy="234" r="8" transform="rotate(0,154,234)"/><circle cx="154" cy="250" r="8" transform="rotate(0,154,250)"/><circle cx="154" cy="266" r="8" transform="rotate(0,154,266)"/><circle cx="154" cy="314" r="8" transform="rotate(0,154,314)"/><circle cx="154" cy="346" r="8" transform="rotate(0,154,346)"/><circle cx="154" cy="394" r="8" transform="rotate(0,154,394)"/><circle cx="154" cy="410" r="8" transform="rotate(0,154,410)"/><circle cx="154" cy="474" r="8" transform="rotate(0,154,474)"/><circle cx="170" cy="26" r="8" transform="rotate(0,170,26)"/><circle cx="170" cy="42" r="8" transform="rotate(0,170,42)"/><circle cx="170" cy="154" r="8" transform="rotate(0,170,154)"/><circle cx="170" cy="170" r="8" transform="rotate(0,170,170)"/><circle cx="170" cy="218" r="8" transform="rotate(0,170,218)"/><circle cx="170" cy="234" r="8" transform="rotate(0,170,234)"/><circle cx="170" cy="266" r="8" transform="rotate(0,170,266)"/><circle cx="170" cy="362" r="8" transform="rotate(0,170,362)"/><circle cx="170" cy="378" r="8" transform="rotate(0,170,378)"/><circle cx="170" cy="394" r="8" transform="rotate(0,170,394)"/><circle cx="170" cy="410" r="8" transform="rotate(0,170,410)"/><circle cx="170" cy="426" r="8" transform="rotate(0,170,426)"/><circle cx="170" cy="474" r="8" transform="rotate(0,170,474)"/><circle cx="186" cy="42" r="8" transform="rotate(0,186,42)"/><circle cx="186" cy="74" r="8" transform="rotate(0,186,74)"/><circle cx="186" cy="90" r="8" transform="rotate(0,186,90)"/><circle cx="186" cy="106" r="8" transform="rotate(0,186,106)"/><circle cx="186" cy="122" r="8" transform="rotate(0,186,122)"/><circle cx="186" cy="154" r="8" transform="rotate(0,186,154)"/><circle cx="186" cy="170" r="8" transform="rotate(0,186,170)"/><circle cx="186" cy="202" r="8" transform="rotate(0,186,202)"/><circle cx="186" cy="218" r="8" transform="rotate(0,186,218)"/><circle cx="186" cy="282" r="8" transform="rotate(0,186,282)"/><circle cx="186" cy="346" r="8" transform="rotate(0,186,346)"/><circle cx="186" cy="362" r="8" transform="rotate(0,186,362)"/><circle cx="186" cy="378" r="8" transform="rotate(0,186,378)"/><circle cx="202" cy="26" r="8" transform="rotate(0,202,26)"/><circle cx="202" cy="74" r="8" transform="rotate(0,202,74)"/><circle cx="202" cy="106" r="8" transform="rotate(0,202,106)"/><circle cx="202" cy="138" r="8" transform="rotate(0,202,138)"/><circle cx="202" cy="154" r="8" transform="rotate(0,202,154)"/><circle cx="202" cy="170" r="8" transform="rotate(0,202,170)"/><circle cx="202" cy="202" r="8" transform="rotate(0,202,202)"/><circle cx="202" cy="250" r="8" transform="rotate(0,202,250)"/><circle cx="202" cy="362" r="8" transform="rotate(0,202,362)"/><circle cx="202" cy="378" r="8" transform="rotate(0,202,378)"/><circle cx="202" cy="394" r="8" transform="rotate(0,202,394)"/><circle cx="202" cy="426" r="8" transform="rotate(0,202,426)"/><circle cx="202" cy="458" r="8" transform="rotate(0,202,458)"/><circle cx="218" cy="42" r="8" transform="rotate(0,218,42)"/><circle cx="218" cy="58" r="8" transform="rotate(0,218,58)"/><circle cx="218" cy="74" r="8" transform="rotate(0,218,74)"/><circle cx="218" cy="90" r="8" transform="rotate(0,218,90)"/><circle cx="218" cy="106" r="8" transform="rotate(0,218,106)"/><circle cx="218" cy="122" r="8" transform="rotate(0,218,122)"/><circle cx="218" cy="186" r="8" transform="rotate(0,218,186)"/><circle cx="218" cy="202" r="8" transform="rotate(0,218,202)"/><circle cx="218" cy="298" r="8" transform="rotate(0,218,298)"/><circle cx="218" cy="314" r="8" transform="rotate(0,218,314)"/><circle cx="218" cy="362" r="8" transform="rotate(0,218,362)"/><circle cx="218" cy="394" r="8" transform="rotate(0,218,394)"/><circle cx="218" cy="442" r="8" transform="rotate(0,218,442)"/><circle cx="218" cy="458" r="8" transform="rotate(0,218,458)"/><circle cx="218" cy="474" r="8" transform="rotate(0,218,474)"/><circle cx="234" cy="42" r="8" transform="rotate(0,234,42)"/><circle cx="234" cy="90" r="8" transform="rotate(0,234,90)"/><circle cx="234" cy="138" r="8" transform="rotate(0,234,138)"/><circle cx="234" cy="250" r="8" transform="rotate(0,234,250)"/><circle cx="234" cy="266" r="8" transform="rotate(0,234,266)"/><circle cx="234" cy="282" r="8" transform="rotate(0,234,282)"/><circle cx="234" cy="298" r="8" transform="rotate(0,234,298)"/><circle cx="234" cy="330" r="8" transform="rotate(0,234,330)"/><circle cx="234" cy="346" r="8" transform="rotate(0,234,346)"/><circle cx="234" cy="362" r="8" transform="rotate(0,234,362)"/><circle cx="234" cy="378" r="8" transform="rotate(0,234,378)"/><circle cx="234" cy="410" r="8" transform="rotate(0,234,410)"/><circle cx="234" cy="426" r="8" transform="rotate(0,234,426)"/><circle cx="234" cy="474" r="8" transform="rotate(0,234,474)"/><circle cx="250" cy="42" r="8" transform="rotate(0,250,42)"/><circle cx="250" cy="74" r="8" transform="rotate(0,250,74)"/><circle cx="250" cy="106" r="8" transform="rotate(0,250,106)"/><circle cx="250" cy="122" r="8" transform="rotate(0,250,122)"/><circle cx="250" cy="154" r="8" transform="rotate(0,250,154)"/><circle cx="250" cy="170" r="8" transform="rotate(0,250,170)"/><circle cx="250" cy="186" r="8" transform="rotate(0,250,186)"/><circle cx="250" cy="282" r="8" transform="rotate(0,250,282)"/><circle cx="250" cy="298" r="8" transform="rotate(0,250,298)"/><circle cx="250" cy="362" r="8" transform="rotate(0,250,362)"/><circle cx="250" cy="378" r="8" transform="rotate(0,250,378)"/><circle cx="250" cy="394" r="8" transform="rotate(0,250,394)"/><circle cx="266" cy="26" r="8" transform="rotate(0,266,26)"/><circle cx="266" cy="58" r="8" transform="rotate(0,266,58)"/><circle cx="266" cy="154" r="8" transform="rotate(0,266,154)"/><circle cx="266" cy="170" r="8" transform="rotate(0,266,170)"/><circle cx="266" cy="186" r="8" transform="rotate(0,266,186)"/><circle cx="266" cy="234" r="8" transform="rotate(0,266,234)"/><circle cx="266" cy="282" r="8" transform="rotate(0,266,282)"/><circle cx="266" cy="298" r="8" transform="rotate(0,266,298)"/><circle cx="266" cy="314" r="8" transform="rotate(0,266,314)"/><circle cx="266" cy="330" r="8" transform="rotate(0,266,330)"/><circle cx="266" cy="410" r="8" transform="rotate(0,266,410)"/><circle cx="266" cy="426" r="8" transform="rotate(0,266,426)"/><circle cx="282" cy="26" r="8" transform="rotate(0,282,26)"/><circle cx="282" cy="90" r="8" transform="rotate(0,282,90)"/><circle cx="282" cy="122" r="8" transform="rotate(0,282,122)"/><circle cx="282" cy="138" r="8" transform="rotate(0,282,138)"/><circle cx="282" cy="186" r="8" transform="rotate(0,282,186)"/><circle cx="282" cy="202" r="8" transform="rotate(0,282,202)"/><circle cx="282" cy="218" r="8" transform="rotate(0,282,218)"/><circle cx="282" cy="234" r="8" transform="rotate(0,282,234)"/><circle cx="282" cy="250" r="8" transform="rotate(0,282,250)"/><circle cx="282" cy="282" r="8" transform="rotate(0,282,282)"/><circle cx="282" cy="426" r="8" transform="rotate(0,282,426)"/><circle cx="282" cy="442" r="8" transform="rotate(0,282,442)"/><circle cx="282" cy="458" r="8" transform="rotate(0,282,458)"/><circle cx="282" cy="474" r="8" transform="rotate(0,282,474)"/><circle cx="298" cy="26" r="8" transform="rotate(0,298,26)"/><circle cx="298" cy="42" r="8" transform="rotate(0,298,42)"/><circle cx="298" cy="58" r="8" transform="rotate(0,298,58)"/><circle cx="298" cy="74" r="8" transform="rotate(0,298,74)"/><circle cx="298" cy="90" r="8" transform="rotate(0,298,90)"/><circle cx="298" cy="106" r="8" transform="rotate(0,298,106)"/><circle cx="298" cy="154" r="8" transform="rotate(0,298,154)"/><circle cx="298" cy="186" r="8" transform="rotate(0,298,186)"/><circle cx="298" cy="218" r="8" transform="rotate(0,298,218)"/><circle cx="298" cy="234" r="8" transform="rotate(0,298,234)"/><circle cx="298" cy="266" r="8" transform="rotate(0,298,266)"/><circle cx="298" cy="314" r="8" transform="rotate(0,298,314)"/><circle cx="298" cy="346" r="8" transform="rotate(0,298,346)"/><circle cx="298" cy="362" r="8" transform="rotate(0,298,362)"/><circle cx="298" cy="378" r="8" transform="rotate(0,298,378)"/><circle cx="298" cy="410" r="8" transform="rotate(0,298,410)"/><circle cx="298" cy="442" r="8" transform="rotate(0,298,442)"/><circle cx="298" cy="458" r="8" transform="rotate(0,298,458)"/><circle cx="298" cy="474" r="8" transform="rotate(0,298,474)"/><circle cx="314" cy="26" r="8" transform="rotate(0,314,26)"/><circle cx="314" cy="122" r="8" transform="rotate(0,314,122)"/><circle cx="314" cy="138" r="8" transform="rotate(0,314,138)"/><circle cx="314" cy="154" r="8" transform="rotate(0,314,154)"/><circle cx="314" cy="170" r="8" transform="rotate(0,314,170)"/><circle cx="314" cy="218" r="8" transform="rotate(0,314,218)"/><circle cx="314" cy="234" r="8" transform="rotate(0,314,234)"/><circle cx="314" cy="266" r="8" transform="rotate(0,314,266)"/><circle cx="314" cy="282" r="8" transform="rotate(0,314,282)"/><circle cx="314" cy="330" r="8" transform="rotate(0,314,330)"/><circle cx="314" cy="378" r="8" transform="rotate(0,314,378)"/><circle cx="330" cy="26" r="8" transform="rotate(0,330,26)"/><circle cx="330" cy="90" r="8" transform="rotate(0,330,90)"/><circle cx="330" cy="106" r="8" transform="rotate(0,330,106)"/><circle cx="330" cy="170" r="8" transform="rotate(0,330,170)"/><circle cx="330" cy="202" r="8" transform="rotate(0,330,202)"/><circle cx="330" cy="218" r="8" transform="rotate(0,330,218)"/><circle cx="330" cy="234" r="8" transform="rotate(0,330,234)"/><circle cx="330" cy="250" r="8" transform="rotate(0,330,250)"/><circle cx="330" cy="266" r="8" transform="rotate(0,330,266)"/><circle cx="330" cy="314" r="8" transform="rotate(0,330,314)"/><circle cx="330" cy="330" r="8" transform="rotate(0,330,330)"/><circle cx="330" cy="346" r="8" transform="rotate(0,330,346)"/><circle cx="330" cy="378" r="8" transform="rotate(0,330,378)"/><circle cx="330" cy="410" r="8" transform="rotate(0,330,410)"/><circle cx="330" cy="426" r="8" transform="rotate(0,330,426)"/><circle cx="330" cy="458" r="8" transform="rotate(0,330,458)"/><circle cx="346" cy="26" r="8" transform="rotate(0,346,26)"/><circle cx="346" cy="90" r="8" transform="rotate(0,346,90)"/><circle cx="346" cy="106" r="8" transform="rotate(0,346,106)"/><circle cx="346" cy="122" r="8" transform="rotate(0,346,122)"/><circle cx="346" cy="138" r="8" transform="rotate(0,346,138)"/><circle cx="346" cy="154" r="8" transform="rotate(0,346,154)"/><circle cx="346" cy="186" r="8" transform="rotate(0,346,186)"/><circle cx="346" cy="202" r="8" transform="rotate(0,346,202)"/><circle cx="346" cy="266" r="8" transform="rotate(0,346,266)"/><circle cx="346" cy="298" r="8" transform="rotate(0,346,298)"/><circle cx="346" cy="330" r="8" transform="rotate(0,346,330)"/><circle cx="346" cy="346" r="8" transform="rotate(0,346,346)"/><circle cx="346" cy="362" r="8" transform="rotate(0,346,362)"/><circle cx="346" cy="378" r="8" transform="rotate(0,346,378)"/><circle cx="346" cy="394" r="8" transform="rotate(0,346,394)"/><circle cx="346" cy="410" r="8" transform="rotate(0,346,410)"/><circle cx="346" cy="426" r="8" transform="rotate(0,346,426)"/><circle cx="346" cy="442" r="8" transform="rotate(0,346,442)"/><circle cx="346" cy="458" r="8" transform="rotate(0,346,458)"/><circle cx="346" cy="474" r="8" transform="rotate(0,346,474)"/><circle cx="362" cy="154" r="8" transform="rotate(0,362,154)"/><circle cx="362" cy="170" r="8" transform="rotate(0,362,170)"/><circle cx="362" cy="186" r="8" transform="rotate(0,362,186)"/><circle cx="362" cy="202" r="8" transform="rotate(0,362,202)"/><circle cx="362" cy="234" r="8" transform="rotate(0,362,234)"/><circle cx="362" cy="282" r="8" transform="rotate(0,362,282)"/><circle cx="362" cy="314" r="8" transform="rotate(0,362,314)"/><circle cx="362" cy="346" r="8" transform="rotate(0,362,346)"/><circle cx="362" cy="410" r="8" transform="rotate(0,362,410)"/><circle cx="362" cy="426" r="8" transform="rotate(0,362,426)"/><circle cx="362" cy="458" r="8" transform="rotate(0,362,458)"/><circle cx="362" cy="474" r="8" transform="rotate(0,362,474)"/><circle cx="378" cy="154" r="8" transform="rotate(0,378,154)"/><circle cx="378" cy="170" r="8" transform="rotate(0,378,170)"/><circle cx="378" cy="186" r="8" transform="rotate(0,378,186)"/><circle cx="378" cy="218" r="8" transform="rotate(0,378,218)"/><circle cx="378" cy="266" r="8" transform="rotate(0,378,266)"/><circle cx="378" cy="314" r="8" transform="rotate(0,378,314)"/><circle cx="378" cy="330" r="8" transform="rotate(0,378,330)"/><circle cx="378" cy="346" r="8" transform="rotate(0,378,346)"/><circle cx="378" cy="378" r="8" transform="rotate(0,378,378)"/><circle cx="378" cy="410" r="8" transform="rotate(0,378,410)"/><circle cx="394" cy="154" r="8" transform="rotate(0,394,154)"/><circle cx="394" cy="186" r="8" transform="rotate(0,394,186)"/><circle cx="394" cy="218" r="8" transform="rotate(0,394,218)"/><circle cx="394" cy="234" r="8" transform="rotate(0,394,234)"/><circle cx="394" cy="282" r="8" transform="rotate(0,394,282)"/><circle cx="394" cy="330" r="8" transform="rotate(0,394,330)"/><circle cx="394" cy="346" r="8" transform="rotate(0,394,346)"/><circle cx="394" cy="410" r="8" transform="rotate(0,394,410)"/><circle cx="394" cy="426" r="8" transform="rotate(0,394,426)"/><circle cx="394" cy="474" r="8" transform="rotate(0,394,474)"/><circle cx="410" cy="154" r="8" transform="rotate(0,410,154)"/><circle cx="410" cy="186" r="8" transform="rotate(0,410,186)"/><circle cx="410" cy="202" r="8" transform="rotate(0,410,202)"/><circle cx="410" cy="218" r="8" transform="rotate(0,410,218)"/><circle cx="410" cy="234" r="8" transform="rotate(0,410,234)"/><circle cx="410" cy="250" r="8" transform="rotate(0,410,250)"/><circle cx="410" cy="314" r="8" transform="rotate(0,410,314)"/><circle cx="410" cy="346" r="8" transform="rotate(0,410,346)"/><circle cx="410" cy="362" r="8" transform="rotate(0,410,362)"/><circle cx="410" cy="378" r="8" transform="rotate(0,410,378)"/><circle cx="410" cy="394" r="8" transform="rotate(0,410,394)"/><circle cx="410" cy="410" r="8" transform="rotate(0,410,410)"/><circle cx="410" cy="426" r="8" transform="rotate(0,410,426)"/><circle cx="410" cy="442" r="8" transform="rotate(0,410,442)"/><circle cx="426" cy="154" r="8" transform="rotate(0,426,154)"/><circle cx="426" cy="218" r="8" transform="rotate(0,426,218)"/><circle cx="426" cy="266" r="8" transform="rotate(0,426,266)"/><circle cx="426" cy="282" r="8" transform="rotate(0,426,282)"/><circle cx="426" cy="330" r="8" transform="rotate(0,426,330)"/><circle cx="426" cy="346" r="8" transform="rotate(0,426,346)"/><circle cx="426" cy="362" r="8" transform="rotate(0,426,362)"/><circle cx="426" cy="394" r="8" transform="rotate(0,426,394)"/><circle cx="426" cy="426" r="8" transform="rotate(0,426,426)"/><circle cx="442" cy="154" r="8" transform="rotate(0,442,154)"/><circle cx="442" cy="170" r="8" transform="rotate(0,442,170)"/><circle cx="442" cy="218" r="8" transform="rotate(0,442,218)"/><circle cx="442" cy="234" r="8" transform="rotate(0,442,234)"/><circle cx="442" cy="298" r="8" transform="rotate(0,442,298)"/><circle cx="442" cy="314" r="8" transform="rotate(0,442,314)"/><circle cx="442" cy="330" r="8" transform="rotate(0,442,330)"/><circle cx="442" cy="346" r="8" transform="rotate(0,442,346)"/><circle cx="442" cy="362" r="8" transform="rotate(0,442,362)"/><circle cx="442" cy="378" r="8" transform="rotate(0,442,378)"/><circle cx="442" cy="394" r="8" transform="rotate(0,442,394)"/><circle cx="442" cy="410" r="8" transform="rotate(0,442,410)"/><circle cx="442" cy="426" r="8" transform="rotate(0,442,426)"/><circle cx="442" cy="458" r="8" transform="rotate(0,442,458)"/><circle cx="458" cy="154" r="8" transform="rotate(0,458,154)"/><circle cx="458" cy="170" r="8" transform="rotate(0,458,170)"/><circle cx="458" cy="186" r="8" transform="rotate(0,458,186)"/><circle cx="458" cy="202" r="8" transform="rotate(0,458,202)"/><circle cx="458" cy="282" r="8" transform="rotate(0,458,282)"/><circle cx="458" cy="378" r="8" transform="rotate(0,458,378)"/><circle cx="458" cy="410" r="8" transform="rotate(0,458,410)"/><circle cx="458" cy="426" r="8" transform="rotate(0,458,426)"/><circle cx="458" cy="458" r="8" transform="rotate(0,458,458)"/><circle cx="474" cy="202" r="8" transform="rotate(0,474,202)"/><circle cx="474" cy="298" r="8" transform="rotate(0,474,298)"/><circle cx="474" cy="314" r="8" transform="rotate(0,474,314)"/><circle cx="474" cy="378" r="8" transform="rotate(0,474,378)"/><circle cx="474" cy="410" r="8" transform="rotate(0,474,410)"/><circle cx="474" cy="442" r="8" transform="rotate(0,474,442)"/></clipPath><clipPath id="clip-path-corners-square-color-0-0"><path clip-rule="evenodd" d="M 74 18a 56 56 0 1 0 0.1 0zm 0 16a 40 40 0 1 1 -0.1 0Z" transform="rotate(0,74,74)"/></clipPath><clipPath id="clip-path-corners-dot-color-0-0"><circle cx="74" cy="74" r="24" transform="rotate(0,74,74)"/></clipPath><clipPath id="clip-path-corners-square-color-1-0"><path clip-rule="evenodd" d="M 426 18a 56 56 0 1 0 0.1 0zm 0 16a 40 40 0 1 1 -0.1 0Z" transform="rotate(90,426,74)"/></clipPath><clipPath id="clip-path-corners-dot-color-1-0"><circle cx="426" cy="74" r="24" transform="rotate(90,426,74)"/></clipPath><clipPath id="clip-path-corners-square-color-0-1"><path clip-rule="evenodd" d="M 74 370a 56 56 0 1 0 0.1 0zm 0 16a 40 40 0 1 1 -0.1 0Z" transform="rotate(-90,74,426)"/></clipPath><clipPath id="clip-path-corners-dot-color-0-1"><circle cx="74" cy="426" r="24" transform="rotate(-90,74,426)"/></clipPath></defs><rect x="0" y="0" height="500" width="500" clip-path="url('#clip-path-background-color')" fill="#fff"/><rect x="0" y="0" height="500" width="500" clip-path="url('#clip-path-dot-color')" fill="#285F2F"/><rect x="18" y="18" height="112" width="112" clip-path="url('#clip-path-corners-square-color-0-0')" fill="#285F2F"/><rect x="50" y="50" height="48" width="48" clip-path="url('#clip-path-corners-dot-color-0-0')" fill="#285F2F"/><rect x="370" y="18" height="112" width="112" clip-path="url('#clip-path-corners-square-color-1-0')" fill="#285F2F"/><rect x="402" y="50" height="48" width="48" clip-path="url('#clip-path-corners-dot-color-1-0')" fill="#285F2F"/><rect x="18" y="370" height="112" width="112" clip-path="url('#clip-path-corners-square-color-0-1')" fill="#285F2F"/><rect x="50" y="402" height="48" width="48" clip-path="url('#clip-path-corners-dot-color-0-1')" fill="#285F2F"/></svg>